<svg xmlns="http://www.w3.org/2000/svg" width="20" height="20" viewBox="0 0 20 20">
  <path id="apron" d="M16.432,9.544h-.373A2.659,2.659,0,0,1,13.4,6.888V4.938a.373.373,0,0,0-.373-.373H7.344V3.4a2.656,2.656,0,0,1,5.311,0,.373.373,0,1,0,.747,0,3.4,3.4,0,0,0-6.8,0V6.888A2.659,2.659,0,0,1,3.942,9.544h-.5a1.911,1.911,0,0,0-1.909,1.909v1.12A1.163,1.163,0,0,1,.373,13.734a.373.373,0,0,0,0,.747,1.911,1.911,0,0,0,1.909-1.909v-1.12A1.164,1.164,0,0,1,3.2,10.318v8.313A1.371,1.371,0,0,0,4.564,20H15.436A1.371,1.371,0,0,0,16.8,18.631V9.917A.373.373,0,0,0,16.432,9.544Zm-.373,9.087a.623.623,0,0,1-.622.622H4.564a.623.623,0,0,1-.622-.622V10.29a3.406,3.406,0,0,0,3.4-3.4V5.311h5.311V6.888a3.406,3.406,0,0,0,3.4,3.4ZM20,14.108a.373.373,0,0,1-.373.373,1.911,1.911,0,0,1-1.909-1.909v-1.12a1.15,1.15,0,0,0-.247-.716.373.373,0,0,1,.588-.461,1.89,1.89,0,0,1,.406,1.177v1.12a1.163,1.163,0,0,0,1.162,1.162A.373.373,0,0,1,20,14.108Zm-7.718-2.822H7.718a1.371,1.371,0,0,0-1.369,1.369v2.9a1.371,1.371,0,0,0,1.369,1.369h4.564a1.371,1.371,0,0,0,1.369-1.369v-2.9A1.371,1.371,0,0,0,12.282,11.286ZM12.9,15.56a.623.623,0,0,1-.622.622H7.718A.623.623,0,0,1,7.1,15.56V14.481h4.647a.373.373,0,1,0,0-.747H7.1V12.656a.623.623,0,0,1,.622-.622h4.564a.623.623,0,0,1,.622.622Z"/>
</svg>
