<svg xmlns="http://www.w3.org/2000/svg" width="20" height="17.593" viewBox="0 0 20 17.593">
  <path id="pan" d="M19.788,37.928l-1.821.873v4.765A3.032,3.032,0,0,1,14.938,46.6H5.062a3.032,3.032,0,0,1-3.029-3.029V38.8L.212,37.928a.373.373,0,0,1,.323-.673l1.5.719V35.807H1.618a.373.373,0,1,1,0-.747H18.381a.373.373,0,0,1,0,.747H2.78v6.777H15.726a.373.373,0,0,1,0,.747H2.78v.235a2.285,2.285,0,0,0,2.282,2.282h9.875a2.285,2.285,0,0,0,2.282-2.282V36.8a.373.373,0,0,1,.747,0v1.17l1.5-.719a.373.373,0,1,1,.323.673ZM2.033,32.985v-.913a1.7,1.7,0,0,1,1.7-1.7H16.265a1.7,1.7,0,0,1,1.7,1.7v.913a.373.373,0,0,1-.373.373H2.407A.373.373,0,0,1,2.033,32.985Zm.747-.373H17.22v-.539a.955.955,0,0,0-.954-.954H3.734a.955.955,0,0,0-.954.954Zm6.39-2.863h1.66a.373.373,0,1,0,0-.747H9.17a.373.373,0,1,0,0,.747Z" transform="translate(0 -29.002)"/>
</svg>
