<svg xmlns="http://www.w3.org/2000/svg" width="11.618" height="20" viewBox="0 0 11.618 20">
  <path id="soup-spoon" d="M112.618,2.033v.4a.373.373,0,1,1-.747,0v-.4a1.286,1.286,0,0,0-2.573,0V15.8a4.15,4.15,0,1,1-8.3.056V14.523a.373.373,0,0,1,.373-.373h5.835a.373.373,0,0,1,0,.747h-5.461v.954a3.4,3.4,0,1,0,6.8-.056V2.033a2.033,2.033,0,0,1,4.066,0Zm-8.8,15.013a.373.373,0,1,0-.556.5,2.771,2.771,0,0,0,.884.66.373.373,0,1,0,.319-.675A2.027,2.027,0,0,1,103.815,17.046Z" transform="translate(-101)"/>
</svg>
